<svg width="700" height="520" xmlns="http://www.w3.org/2000/svg" version="1.1"><g transform="translate(0,10)"><g><path class="link" d="M470,221.83719531342905C580,221.83719531342905 580,60.17882438077366 690,60.17882438077366" style="stroke-width: 33.5574691397886px; fill: none; stroke: rgb(191, 105, 163); stroke-opacity: 0.4;"></path><path class="link" d="M240,83.49920367818137C350,83.49920367818137 350,117.86850774016048 460,117.86850774016048" style="stroke-width: 22.1730520584056px; fill: none; stroke: rgb(105, 128, 191); stroke-opacity: 0.4;"></path><path class="link" d="M10,11.036308398082456C120,11.036308398082456 120,115.62203810546664 230,115.62203810546664" style="stroke-width: 22.0726167961649px; fill: none; stroke: rgb(191, 105, 105); stroke-opacity: 0.4;"></path><path class="link" d="M240,115.62203810546664C350,115.62203810546664 350,227.60846895971912 460,227.60846895971912" style="stroke-width: 22.0726167961649px; fill: none; stroke: rgb(105, 191, 186); stroke-opacity: 0.4;"></path><path class="link" d="M10,41.631114856124405C120,41.631114856124405 120,34.5584980599595 230,34.5584980599595" style="stroke-width: 19.116996119919px; fill: none; stroke: rgb(105, 191, 137); stroke-opacity: 0.4;"></path><path class="link" d="M470,349.341287879482C580,349.341287879482 580,115.45860464208634 690,115.45860464208634" style="stroke-width: 19.116996119919px; fill: none; stroke: rgb(191, 105, 124); stroke-opacity: 0.4;"></path><path class="link" d="M240,52.854179589019054C350,52.854179589019054 350,349.341287879482 460,349.341287879482" style="stroke-width: 19.116996119919px; fill: none; stroke: rgb(105, 157, 191); stroke-opacity: 0.4;"></path><path class="link" d="M470,131.48083810772795C580,131.48083810772795 580,174.89749416711624 690,174.89749416711624" style="stroke-width: 18.6155720986446px; fill: none; stroke: rgb(191, 105, 144); stroke-opacity: 0.4;"></path><path class="link" d="M240,144.39812932765122C350,144.39812932765122 350,246.38456018190368 460,246.38456018190368" style="stroke-width: 15.4795656482042px; fill: none; stroke: rgb(141, 105, 191); stroke-opacity: 0.4;"></path><path class="link" d="M470,264.6690556937492C580,264.6690556937492 580,201.94506304054065 690,201.94506304054065" style="stroke-width: 15.4795656482042px; fill: none; stroke: rgb(191, 105, 163); stroke-opacity: 0.4;"></path><path class="link" d="M10,68.92939574018602C120,68.92939574018602 120,144.39812932765122 230,144.39812932765122" style="stroke-width: 15.4795656482042px; fill: none; stroke: rgb(131, 191, 105); stroke-opacity: 0.4;"></path><path class="link" d="M10,93.55565968805126C120,93.55565968805126 120,79.29915877274169 230,79.29915877274169" style="stroke-width: 13.7729622475263px; fill: none; stroke: rgb(160, 191, 105); stroke-opacity: 0.4;"></path><path class="link" d="M470,115.28657093464254C580,115.28657093464254 580,141.903583825809 690,141.903583825809" style="stroke-width: 13.7729622475263px; fill: none; stroke: rgb(191, 105, 144); stroke-opacity: 0.4;"></path><path class="link" d="M470,307.8696047657888C580,307.8696047657888 580,225.99906823842173 690,225.99906823842173" style="stroke-width: 12.6284447475579px; fill: none; stroke: rgb(191, 105, 154); stroke-opacity: 0.4;"></path><path class="link" d="M240,192.62640168541782C350,192.62640168541782 350,300.4407569524318 460,300.4407569524318" style="stroke-width: 12.6284447475579px; fill: none; stroke: rgb(105, 186, 191); stroke-opacity: 0.4;"></path><path class="link" d="M10,116.75636318559336C120,116.75636318559336 120,192.62640168541782 230,192.62640168541782" style="stroke-width: 12.6284447475579px; fill: none; stroke: rgb(191, 115, 105); stroke-opacity: 0.4;"></path><path class="link" d="M240,215.08368390164966C350,215.08368390164966 350,135.09809361181615 460,135.09809361181615" style="stroke-width: 12.2861196849057px; fill: none; stroke: rgb(105, 118, 191); stroke-opacity: 0.4;"></path><path class="link" d="M10,139.21364540182518C120,139.21364540182518 120,215.08368390164966 230,215.08368390164966" style="stroke-width: 12.2861196849057px; fill: none; stroke: rgb(189, 191, 105); stroke-opacity: 0.4;"></path><path class="link" d="M10,161.4919915402234C120,161.4919915402234 120,237.3620300400479 230,237.3620300400479" style="stroke-width: 12.2705725918908px; fill: none; stroke: rgb(112, 191, 105); stroke-opacity: 0.4;"></path><path class="link" d="M470,146.9239104529956C580,146.9239104529956 580,248.4485769081461 690,248.4485769081461" style="stroke-width: 12.2705725918908px; fill: none; stroke: rgb(191, 105, 144); stroke-opacity: 0.4;"></path><path class="link" d="M240,237.3620300400479C350,237.3620300400479 350,147.3764397502144 460,147.3764397502144" style="stroke-width: 12.2705725918908px; fill: none; stroke: rgb(160, 105, 191); stroke-opacity: 0.4;"></path><path class="link" d="M10,183.5482333645595C120,183.5482333645595 120,168.05886768014403 230,168.05886768014403" style="stroke-width: 11.8419110567814px; fill: none; stroke: rgb(121, 191, 105); stroke-opacity: 0.4;"></path><path class="link" d="M470,364.82074146783225C580,364.82074146783225 580,270.5048187324822 690,270.5048187324822" style="stroke-width: 11.8419110567814px; fill: none; stroke: rgb(191, 105, 124); stroke-opacity: 0.4;"></path><path class="link" d="M240,168.05886768014403C350,168.05886768014403 350,364.82074146783225 460,364.82074146783225" style="stroke-width: 11.8419110567814px; fill: none; stroke: rgb(150, 105, 191); stroke-opacity: 0.4;"></path><path class="link" d="M10,205.2260388020012C120,205.2260388020012 120,49.87384602896996 230,49.87384602896996" style="stroke-width: 11.5136998181019px; fill: none; stroke: rgb(191, 144, 105); stroke-opacity: 0.4;"></path><path class="link" d="M240,37.538831620008594C350,37.538831620008594 350,210.8153106525857 460,210.8153106525857" style="stroke-width: 11.5136998181019px; fill: none; stroke: rgb(105, 157, 191); stroke-opacity: 0.4;"></path><path class="link" d="M470,244.37277979237433C580,244.37277979237433 580,92.71440885971892 690,92.71440885971892" style="stroke-width: 11.5136998181019px; fill: none; stroke: rgb(191, 105, 163); stroke-opacity: 0.4;"></path><path class="link" d="M10,226.725314882864C120,226.725314882864 120,259.23974250780515 230,259.23974250780515" style="stroke-width: 11.4848523436237px; fill: none; stroke: rgb(191, 154, 105); stroke-opacity: 0.4;"></path><path class="link" d="M240,259.23974250780515C350,259.23974250780515 350,259.8667691778177 460,259.8667691778177" style="stroke-width: 11.4848523436237px; fill: none; stroke: rgb(105, 147, 191); stroke-opacity: 0.4;"></path><path class="link" d="M240,280.5043217045101C350,280.5043217045101 350,159.03387907105287 460,159.03387907105287" style="stroke-width: 11.0443060497862px; fill: none; stroke: rgb(105, 176, 191); stroke-opacity: 0.4;"></path><path class="link" d="M10,247.98989407956898C120,247.98989407956898 120,280.5043217045101 230,280.5043217045101" style="stroke-width: 11.0443060497862px; fill: none; stroke: rgb(191, 124, 105); stroke-opacity: 0.4;"></path><path class="link" d="M470,158.58134977383412C580,158.58134977383412 580,291.94792728576596 690,291.94792728576596" style="stroke-width: 11.0443060497862px; fill: none; stroke: rgb(191, 105, 144); stroke-opacity: 0.4;"></path><path class="link" d="M240,320.88530288332885C350,320.88530288332885 350,314.6878605794634 460,314.6878605794634" style="stroke-width: 8.60906530157127px; fill: none; stroke: rgb(170, 105, 191); stroke-opacity: 0.4;"></path><path class="link" d="M470,318.48835979035334C580,318.48835979035334 580,311.7746129614447 690,311.7746129614447" style="stroke-width: 8.60906530157127px; fill: none; stroke: rgb(191, 105, 154); stroke-opacity: 0.4;"></path><path class="link" d="M10,267.81657975524774C120,267.81657975524774 120,320.88530288332885 230,320.88530288332885" style="stroke-width: 8.60906530157127px; fill: none; stroke: rgb(105, 191, 108); stroke-opacity: 0.4;"></path><path class="link" d="M240,339.44184328463024C350,339.44184328463024 350,168.80803984646178 460,168.80803984646178" style="stroke-width: 8.50401550103151px; fill: none; stroke: rgb(189, 105, 191); stroke-opacity: 0.4;"></path><path class="link" d="M470,168.355510549243C580,168.355510549243 580,348.87517179369144 690,348.87517179369144" style="stroke-width: 8.50401550103151px; fill: none; stroke: rgb(191, 105, 144); stroke-opacity: 0.4;"></path><path class="link" d="M10,286.37312015654913C120,286.37312015654913 120,339.44184328463024 230,339.44184328463024" style="stroke-width: 8.50401550103151px; fill: none; stroke: rgb(105, 191, 147); stroke-opacity: 0.4;"></path><path class="link" d="M10,304.85836894071235C120,304.85836894071235 120,357.92709206879346 230,357.92709206879346" style="stroke-width: 8.46648206729491px; fill: none; stroke: rgb(141, 191, 105); stroke-opacity: 0.4;"></path><path class="link" d="M470,176.84075933340623C580,176.84075933340623 580,367.36042057785465 690,367.36042057785465" style="stroke-width: 8.46648206729491px; fill: none; stroke: rgb(191, 105, 144); stroke-opacity: 0.4;"></path><path class="link" d="M240,357.92709206879346C350,357.92709206879346 350,177.29328863062497 460,177.29328863062497" style="stroke-width: 8.46648206729491px; fill: none; stroke: rgb(131, 105, 191); stroke-opacity: 0.4;"></path><path class="link" d="M470,104.20004490543971C580,104.20004490543971 580,39.20004490543966 690,39.20004490543966" style="stroke-width: 8.40008981087938px; fill: none; stroke: rgb(191, 105, 144); stroke-opacity: 0.4;"></path><path class="link" d="M10,323.2916548797995C120,323.2916548797995 120,90.3856848019445 230,90.3856848019445" style="stroke-width: 8.40008981087938px; fill: none; stroke: rgb(191, 173, 105); stroke-opacity: 0.4;"></path><path class="link" d="M10,341.20612369191764C120,341.20612369191764 120,375.8747570091194 230,375.8747570091194" style="stroke-width: 7.42884781335697px; fill: none; stroke: rgb(150, 191, 105); stroke-opacity: 0.4;"></path><path class="link" d="M470,297.84095848533127C580,297.84095848533127 580,102.18568267544838 690,102.18568267544838" style="stroke-width: 7.42884781335697px; fill: none; stroke: rgb(191, 105, 154); stroke-opacity: 0.4;"></path><path class="link" d="M240,375.8747570091194C350,375.8747570091194 350,322.7068171369275 460,322.7068171369275" style="stroke-width: 7.42884781335697px; fill: none; stroke: rgb(121, 105, 191); stroke-opacity: 0.4;"></path><path class="link" d="M470,184.67523969981536C580,184.67523969981536 580,385.19490094426385 690,385.19490094426385" style="stroke-width: 7.20247866552344px; fill: none; stroke: rgb(191, 105, 144); stroke-opacity: 0.4;"></path><path class="link" d="M240,393.19042024855963C350,393.19042024855963 350,185.1277689970341 460,185.1277689970341" style="stroke-width: 7.20247866552344px; fill: none; stroke: rgb(112, 105, 191); stroke-opacity: 0.4;"></path><path class="link" d="M10,358.5217869313579C120,358.5217869313579 120,393.19042024855963 230,393.19042024855963" style="stroke-width: 7.20247866552344px; fill: none; stroke: rgb(170, 191, 105); stroke-opacity: 0.4;"></path><path class="link" d="M470,384.2046704465594C580,384.2046704465594 580,402.25911372736203 690,402.25911372736203" style="stroke-width: 6.92594690067297px; fill: none; stroke: rgb(191, 105, 134); stroke-opacity: 0.4;"></path><path class="link" d="M240,303.11779678220677C350,303.11779678220677 350,384.2046704465594 460,384.2046704465594" style="stroke-width: 6.92594690067297px; fill: none; stroke: rgb(105, 166, 191); stroke-opacity: 0.4;"></path><path class="link" d="M10,375.5859997144561C120,375.5859997144561 120,299.4894481797397 230,299.4894481797397" style="stroke-width: 6.92594690067297px; fill: none; stroke: rgb(191, 134, 105); stroke-opacity: 0.4;"></path><path class="link" d="M240,410.19267269748286C350,410.19267269748286 350,269.0102084657911 460,269.0102084657911" style="stroke-width: 6.80202623232313px; fill: none; stroke: rgb(191, 105, 183); stroke-opacity: 0.4;"></path><path class="link" d="M10,392.4499862809541C120,392.4499862809541 120,410.19267269748286 230,410.19267269748286" style="stroke-width: 6.80202623232313px; fill: none; stroke: rgb(105, 191, 157); stroke-opacity: 0.4;"></path><path class="link" d="M470,280.72552146249126C580,280.72552146249126 580,419.12310029386003 690,419.12310029386003" style="stroke-width: 6.80202623232313px; fill: none; stroke: rgb(191, 105, 163); stroke-opacity: 0.4;"></path><path class="link" d="M10,409.2508209812265C120,409.2508209812265 120,426.99350739775537 230,426.99350739775537" style="stroke-width: 6.79964316822183px; fill: none; stroke: rgb(105, 191, 128); stroke-opacity: 0.4;"></path><path class="link" d="M240,426.99350739775537C350,426.99350739775537 350,275.81104316606354 460,275.81104316606354" style="stroke-width: 6.79964316822183px; fill: none; stroke: rgb(179, 105, 191); stroke-opacity: 0.4;"></path><path class="link" d="M470,253.5294512855362C580,253.5294512855362 580,152.18988653368305 690,152.18988653368305" style="stroke-width: 6.79964316822183px; fill: none; stroke: rgb(191, 105, 163); stroke-opacity: 0.4;"></path><path class="link" d="M240,28.390990855478815C350,28.390990855478815 350,103.39099085547885 460,103.39099085547885" style="stroke-width: 6.78198171095763px; fill: none; stroke: rgb(105, 157, 191); stroke-opacity: 0.4;"></path><path class="link" d="M10,426.0416334208163C120,426.0416334208163 120,59.02168679349973 230,59.02168679349973" style="stroke-width: 6.78198171095763px; fill: none; stroke: rgb(191, 183, 105); stroke-opacity: 0.4;"></path><path class="link" d="M470,191.6674698880559C580,191.6674698880559 580,435.9151042655005 690,435.9151042655005" style="stroke-width: 6.78198171095763px; fill: none; stroke: rgb(191, 105, 144); stroke-opacity: 0.4;"></path><path class="link" d="M240,443.55805518873575C350,443.55805518873575 350,191.89373453666528 460,191.89373453666528" style="stroke-width: 6.32945241373887px; fill: none; stroke: rgb(105, 137, 191); stroke-opacity: 0.4;"></path><path class="link" d="M10,442.5973504831645C120,442.5973504831645 120,443.55805518873575 230,443.55805518873575" style="stroke-width: 6.32945241373887px; fill: none; stroke: rgb(191, 163, 105); stroke-opacity: 0.4;"></path><path class="link" d="M470,274.8666734320905C580,274.8666734320905 580,328.5369805264695 690,328.5369805264695" style="stroke-width: 4.91566982847836px; fill: none; stroke: rgb(191, 105, 163); stroke-opacity: 0.4;"></path><path class="link" d="M10,458.21991160427314C120,458.21991160427314 120,459.18061630984437 230,459.18061630984437" style="stroke-width: 4.91566982847836px; fill: none; stroke: rgb(179, 191, 105); stroke-opacity: 0.4;"></path><path class="link" d="M240,459.18061630984437C350,459.18061630984437 350,281.6686996644137 460,281.6686996644137" style="stroke-width: 4.91566982847836px; fill: none; stroke: rgb(105, 108, 191); stroke-opacity: 0.4;"></path><path class="link" d="M470,324.60706674237247C580,324.60706674237247 580,332.8089897419422 690,332.8089897419422" style="stroke-width: 3.62834860246702px; fill: none; stroke: rgb(191, 105, 154); stroke-opacity: 0.4;"></path><path class="link" d="M240,297.8406490306367C350,297.8406490306367 350,308.5691536274442 460,308.5691536274442" style="stroke-width: 3.62834860246702px; fill: none; stroke: rgb(105, 166, 191); stroke-opacity: 0.4;"></path><path class="link" d="M10,472.4919208197458C120,472.4919208197458 120,304.76659593130967 230,304.76659593130967" style="stroke-width: 3.62834860246702px; fill: none; stroke: rgb(105, 191, 118); stroke-opacity: 0.4;"></path><path class="link" d="M240,473.3192256120418C350,473.3192256120418 350,328.10201543156427 460,328.10201543156427" style="stroke-width: 3.36154877591652px; fill: none; stroke: rgb(191, 105, 173); stroke-opacity: 0.4;"></path><path class="link" d="M10,485.9868695089376C120,485.9868695089376 120,473.3192256120418 230,473.3192256120418" style="stroke-width: 3.36154877591652px; fill: none; stroke: rgb(105, 191, 166); stroke-opacity: 0.4;"></path><path class="link" d="M470,328.10201543156427C580,328.10201543156427 580,450.9868695089375 690,450.9868695089375" style="stroke-width: 3.36154877591652px; fill: none; stroke: rgb(191, 105, 154); stroke-opacity: 0.4;"></path><path class="link" d="M240,175.14600126008682C350,175.14600126008682 350,398.8338219484479 460,398.8338219484479" style="stroke-width: 2.3323561031041px; fill: none; stroke: rgb(150, 105, 191); stroke-opacity: 0.4;"></path><path class="link" d="M10,498.8338219484479C120,498.8338219484479 120,175.14600126008682 230,175.14600126008682" style="stroke-width: 2.3323561031041px; fill: none; stroke: rgb(105, 191, 176); stroke-opacity: 0.4;"></path><path class="link" d="M470,398.8338219484479C580,398.8338219484479 580,463.8338219484478 690,463.8338219484478" style="stroke-width: 2.3323561031041px; fill: none; stroke: rgb(191, 105, 115); stroke-opacity: 0.4;"></path></g><g><g class="node" transform="translate(460,205.05846074353474)"><rect height="79.0680738351181" width="10"><title>Action
2,724,274,770</title></rect><text x="-6" y="39.53403691755905" dy=".35em" text-anchor="end" style="font-size: 11px; font-family: Arial, Helvetica; pointer-events: none;">Action</text></g><g class="node" transform="translate(460,100.00000000000003)"><rect height="95.0584607435347" width="10"><title>Adventure
3,275,220,373</title></rect><text x="-6" y="47.52923037176735" dy=".35em" text-anchor="end" style="font-size: 11px; font-family: Arial, Helvetica; pointer-events: none;">Adventure</text></g><g class="node" transform="translate(460,380.7416969962229)"><rect height="6.925946900672965" width="10"><title>Comedy
238,632,124</title></rect><text x="-6" y="3.4629734503364826" dy=".35em" text-anchor="end" style="font-size: 11px; font-family: Arial, Helvetica; pointer-events: none;">Comedy</text></g><g class="node" transform="translate(460,294.1265345786528)"><rect height="35.65625524086973" width="10"><title>Drama
1,228,529,188</title></rect><text x="-6" y="17.828127620434866" dy=".35em" text-anchor="end" style="font-size: 11px; font-family: Arial, Helvetica; pointer-events: none;">Drama</text></g><g class="node" transform="translate(460,397.66764389689587)"><rect height="2.3323561031041047" width="10"><title>Romantic Comedy
80,360,866</title></rect><text x="-6" y="1.1661780515520523" dy=".35em" text-anchor="end" style="font-size: 11px; font-family: Arial, Helvetica; pointer-events: none;">Romantic Comedy</text></g><g class="node" transform="translate(460,339.7827898195225)"><rect height="30.9589071767004" width="10"><title>Thriller/Suspense
1,066,682,994</title></rect><text x="-6" y="15.4794535883502" dy=".35em" text-anchor="end" style="font-size: 11px; font-family: Arial, Helvetica; pointer-events: none;">Thriller/Suspense</text></g><g class="node" transform="translate(0,0)"><rect height="22.072616796164912" width="10"><title>Avatar
760,507,625</title></rect><text x="16" y="11.036308398082456" dy=".35em" text-anchor="start" style="font-size: 11px; font-family: Arial, Helvetica; pointer-events: none;">Avatar</text></g><g class="node" transform="translate(0,110.44214081181438)"><rect height="12.628444747557948" width="10"><title>ET: The Extra-Terrestrial
435,110,554</title></rect><text x="16" y="6.314222373778974" dy=".35em" text-anchor="start" style="font-size: 11px; font-family: Arial, Helvetica; pointer-events: none;">ET: The Extra-Terrestrial</text></g><g class="node" transform="translate(0,242.46774105467588)"><rect height="11.044306049786224" width="10"><title>Finding Nemo
380,529,370</title></rect><text x="16" y="5.522153024893112" dy=".35em" text-anchor="start" style="font-size: 11px; font-family: Arial, Helvetica; pointer-events: none;">Finding Nemo</text></g><g class="node" transform="translate(0,372.1230262641196)"><rect height="6.925946900672965" width="10"><title>Ghostbusters
238,632,124</title></rect><text x="16" y="3.4629734503364826" dy=".35em" text-anchor="start" style="font-size: 11px; font-family: Arial, Helvetica; pointer-events: none;">Ghostbusters</text></g><g class="node" transform="translate(0,199.46918889295023)"><rect height="11.513699818101925" width="10"><title>Iron Man 3
396,702,239</title></rect><text x="16" y="5.756849909050962" dy=".35em" text-anchor="start" style="font-size: 11px; font-family: Arial, Helvetica; pointer-events: none;">Iron Man 3</text></g><g class="node" transform="translate(0,220.98288871105217)"><rect height="11.484852343623706" width="10"><title>Jurassic Park
395,708,305</title></rect><text x="16" y="5.742426171811853" dy=".35em" text-anchor="start" style="font-size: 11px; font-family: Arial, Helvetica; pointer-events: none;">Jurassic Park</text></g><g class="node" transform="translate(0,439.4326242762951)"><rect height="6.329452413738868" width="10"><title>King Kong
218,080,025</title></rect><text x="16" y="3.164726206869434" dy=".35em" text-anchor="start" style="font-size: 11px; font-family: Arial, Helvetica; pointer-events: none;">King Kong</text></g><g class="node" transform="translate(0,319.0916099743598)"><rect height="8.40008981087938" width="10"><title>Monsters, Inc.
289,423,425</title></rect><text x="16" y="4.20004490543969" dy=".35em" text-anchor="start" style="font-size: 11px; font-family: Arial, Helvetica; pointer-events: none;">Monsters, Inc.</text></g><g class="node" transform="translate(0,422.6506425653375)"><rect height="6.781981710957632" width="10"><title>Oz the Great and Powerful
233,671,832</title></rect><text x="16" y="3.390990855478816" dy=".35em" text-anchor="start" style="font-size: 11px; font-family: Arial, Helvetica; pointer-events: none;">Oz the Great and Powerful</text></g><g class="node" transform="translate(0,133.07058555937232)"><rect height="12.286119684905708" width="10"><title>Pirates of the Caribbean: Dead Man's Chest
423,315,812</title></rect><text x="16" y="6.143059842452854" dy=".35em" text-anchor="start" style="font-size: 11px; font-family: Arial, Helvetica; pointer-events: none;">Pirates of the Caribbean: Dead Man's Chest</text></g><g class="node" transform="translate(0,455.76207669003395)"><rect height="4.915669828478355" width="10"><title>Quantum of Solace
169,368,427</title></rect><text x="16" y="2.4578349142391773" dy=".35em" text-anchor="start" style="font-size: 11px; font-family: Arial, Helvetica; pointer-events: none;">Quantum of Solace</text></g><g class="node" transform="translate(0,354.92054759859616)"><rect height="7.202478665523436" width="10"><title>Raiders of the Lost Ark
248,159,971</title></rect><text x="16" y="3.601239332761718" dy=".35em" text-anchor="start" style="font-size: 11px; font-family: Arial, Helvetica; pointer-events: none;">Raiders of the Lost Ark</text></g><g class="node" transform="translate(0,86.66917856428813)"><rect height="13.772962247526253" width="10"><title>Star Wars Ep. I: The Phantom Menace
474,544,677</title></rect><text x="16" y="6.886481123763127" dy=".35em" text-anchor="start" style="font-size: 11px; font-family: Arial, Helvetica; pointer-events: none;">Star Wars Ep. I: The Phantom Menace</text></g><g class="node" transform="translate(0,337.4916997852392)"><rect height="7.42884781335697" width="10"><title>The Blind Side
255,959,475</title></rect><text x="16" y="3.714423906678485" dy=".35em" text-anchor="start" style="font-size: 11px; font-family: Arial, Helvetica; pointer-events: none;">The Blind Side</text></g><g class="node" transform="translate(0,300.6251279070649)"><rect height="8.466482067294908" width="10"><title>The Chronicles of Narnia: The Lion, the Witch and the Wardrobe
291,710,957</title></rect><text x="16" y="4.233241033647454" dy=".35em" text-anchor="start" style="font-size: 11px; font-family: Arial, Helvetica; pointer-events: none;">The Chronicles of Narnia: The Lion, the Witch and the Wardrobe</text></g><g class="node" transform="translate(0,61.1896129160839)"><rect height="15.479565648204234" width="10"><title>The Dark Knight
533,345,358</title></rect><text x="16" y="7.739782824102117" dy=".35em" text-anchor="start" style="font-size: 11px; font-family: Arial, Helvetica; pointer-events: none;">The Dark Knight</text></g><g class="node" transform="translate(0,177.62727783616882)"><rect height="11.841911056781408" width="10"><title>The Hunger Games
408,010,692</title></rect><text x="16" y="5.920955528390704" dy=".35em" text-anchor="start" style="font-size: 11px; font-family: Arial, Helvetica; pointer-events: none;">The Hunger Games</text></g><g class="node" transform="translate(0,155.35670524427803)"><rect height="12.270572591890781" width="10"><title>The Lion King
422,780,140</title></rect><text x="16" y="6.135286295945391" dy=".35em" text-anchor="start" style="font-size: 11px; font-family: Arial, Helvetica; pointer-events: none;">The Lion King</text></g><g class="node" transform="translate(0,263.5120471044621)"><rect height="8.609065301571267" width="10"><title>The Twilight Saga: New Moon
296,623,634</title></rect><text x="16" y="4.304532650785633" dy=".35em" text-anchor="start" style="font-size: 11px; font-family: Arial, Helvetica; pointer-events: none;">The Twilight Saga: New Moon</text></g><g class="node" transform="translate(0,470.6777465185123)"><rect height="3.6283486024670224" width="10"><title>The Vow
125,014,030</title></rect><text x="16" y="1.8141743012335112" dy=".35em" text-anchor="start" style="font-size: 11px; font-family: Arial, Helvetica; pointer-events: none;">The Vow</text></g><g class="node" transform="translate(0,405.85099939711563)"><rect height="6.799643168221833" width="10"><title>The War of the Worlds
234,280,354</title></rect><text x="16" y="3.3998215841109163" dy=".35em" text-anchor="start" style="font-size: 11px; font-family: Arial, Helvetica; pointer-events: none;">The War of the Worlds</text></g><g class="node" transform="translate(0,32.07261679616491)"><rect height="19.11699611991899" width="10"><title>Titanic
658,672,302</title></rect><text x="16" y="9.558498059959495" dy=".35em" text-anchor="start" style="font-size: 11px; font-family: Arial, Helvetica; pointer-events: none;">Titanic</text></g><g class="node" transform="translate(0,282.1211124060334)"><rect height="8.50401550103151" width="10"><title>Up
293,004,164</title></rect><text x="16" y="4.252007750515755" dy=".35em" text-anchor="start" style="font-size: 11px; font-family: Arial, Helvetica; pointer-events: none;">Up</text></g><g class="node" transform="translate(0,389.0489731647925)"><rect height="6.802026232323128" width="10"><title>X-Men: The Last Stand
234,362,462</title></rect><text x="16" y="3.401013116161564" dy=".35em" text-anchor="start" style="font-size: 11px; font-family: Arial, Helvetica; pointer-events: none;">X-Men: The Last Stand</text></g><g class="node" transform="translate(0,484.30609512097936)"><rect height="3.361548775916521" width="10"><title>You've Got Mail
115,821,495</title></rect><text x="16" y="1.6807743879582604" dy=".35em" text-anchor="start" style="font-size: 11px; font-family: Arial, Helvetica; pointer-events: none;">You've Got Mail</text></g><g class="node" transform="translate(0,497.66764389689587)"><rect height="2.3323561031041047" width="10"><title>Zookeeper
80,360,866</title></rect><text x="16" y="1.1661780515520523" dy=".35em" text-anchor="start" style="font-size: 11px; font-family: Arial, Helvetica; pointer-events: none;">Zookeeper</text></g><g class="node" transform="translate(230,186.31217931163886)"><rect height="12.628444747557948" width="10"><title>10500000
435,110,554</title></rect><text x="16" y="6.314222373778974" dy=".35em" text-anchor="start" style="font-size: 11px; font-family: Arial, Helvetica; pointer-events: none;">10500000</text></g><g class="node" transform="translate(230,72.41267764897856)"><rect height="22.17305205840563" width="10"><title>115000000
763,968,102</title></rect><text x="16" y="11.086526029202815" dy=".35em" text-anchor="start" style="font-size: 11px; font-family: Arial, Helvetica; pointer-events: none;">115000000</text></g><g class="node" transform="translate(230,423.59368581364447)"><rect height="6.799643168221833" width="10"><title>132000000
234,280,354</title></rect><text x="16" y="3.3998215841109163" dy=".35em" text-anchor="start" style="font-size: 11px; font-family: Arial, Helvetica; pointer-events: none;">132000000</text></g><g class="node" transform="translate(230,335.1898355341145)"><rect height="8.50401550103151" width="10"><title>175000000
293,004,164</title></rect><text x="16" y="4.252007750515755" dy=".35em" text-anchor="start" style="font-size: 11px; font-family: Arial, Helvetica; pointer-events: none;">175000000</text></g><g class="node" transform="translate(230,353.693851035146)"><rect height="8.466482067294908" width="10"><title>180000000
291,710,957</title></rect><text x="16" y="4.233241033647454" dy=".35em" text-anchor="start" style="font-size: 11px; font-family: Arial, Helvetica; pointer-events: none;">180000000</text></g><g class="node" transform="translate(230,136.6583465035491)"><rect height="15.479565648204234" width="10"><title>185000000
533,345,358</title></rect><text x="16" y="7.739782824102117" dy=".35em" text-anchor="start" style="font-size: 11px; font-family: Arial, Helvetica; pointer-events: none;">185000000</text></g><g class="node" transform="translate(230,389.5891809157979)"><rect height="7.202478665523436" width="10"><title>20000000
248,159,971</title></rect><text x="16" y="3.601239332761718" dy=".35em" text-anchor="start" style="font-size: 11px; font-family: Arial, Helvetica; pointer-events: none;">20000000</text></g><g class="node" transform="translate(230,25)"><rect height="37.41267764897855" width="10"><title>200000000
1,289,046,373</title></rect><text x="16" y="18.706338824489276" dy=".35em" text-anchor="start" style="font-size: 11px; font-family: Arial, Helvetica; pointer-events: none;">200000000</text></g><g class="node" transform="translate(230,440.3933289818663)"><rect height="6.329452413738868" width="10"><title>207000000
218,080,025</title></rect><text x="16" y="3.164726206869434" dy=".35em" text-anchor="start" style="font-size: 11px; font-family: Arial, Helvetica; pointer-events: none;">207000000</text></g><g class="node" transform="translate(230,406.7916595813213)"><rect height="6.802026232323128" width="10"><title>210000000
234,362,462</title></rect><text x="16" y="3.401013116161564" dy=".35em" text-anchor="start" style="font-size: 11px; font-family: Arial, Helvetica; pointer-events: none;">210000000</text></g><g class="node" transform="translate(230,208.9406240591968)"><rect height="12.286119684905708" width="10"><title>225000000
423,315,812</title></rect><text x="16" y="6.143059842452854" dy=".35em" text-anchor="start" style="font-size: 11px; font-family: Arial, Helvetica; pointer-events: none;">225000000</text></g><g class="node" transform="translate(230,456.7227813956052)"><rect height="4.915669828478355" width="10"><title>230000000
169,368,427</title></rect><text x="16" y="2.4578349142391773" dy=".35em" text-anchor="start" style="font-size: 11px; font-family: Arial, Helvetica; pointer-events: none;">230000000</text></g><g class="node" transform="translate(230,296.0264747294032)"><rect height="10.554295503139988" width="10"><title>30000000
363,646,154</title></rect><text x="16" y="5.277147751569994" dy=".35em" text-anchor="start" style="font-size: 11px; font-family: Arial, Helvetica; pointer-events: none;">30000000</text></g><g class="node" transform="translate(230,372.1603331024409)"><rect height="7.42884781335697" width="10"><title>35000000
255,959,475</title></rect><text x="16" y="3.714423906678485" dy=".35em" text-anchor="start" style="font-size: 11px; font-family: Arial, Helvetica; pointer-events: none;">35000000</text></g><g class="node" transform="translate(230,104.58572970738419)"><rect height="22.072616796164912" width="10"><title>425000000
760,507,625</title></rect><text x="16" y="11.036308398082456" dy=".35em" text-anchor="start" style="font-size: 11px; font-family: Arial, Helvetica; pointer-events: none;">425000000</text></g><g class="node" transform="translate(230,316.5807702325432)"><rect height="8.609065301571267" width="10"><title>50000000
296,623,634</title></rect><text x="16" y="4.304532650785633" dy=".35em" text-anchor="start" style="font-size: 11px; font-family: Arial, Helvetica; pointer-events: none;">50000000</text></g><g class="node" transform="translate(230,253.4973163359933)"><rect height="11.484852343623706" width="10"><title>63000000
395,708,305</title></rect><text x="16" y="5.742426171811853" dy=".35em" text-anchor="start" style="font-size: 11px; font-family: Arial, Helvetica; pointer-events: none;">63000000</text></g><g class="node" transform="translate(230,471.63845122408355)"><rect height="3.361548775916521" width="10"><title>65000000
115,821,495</title></rect><text x="16" y="1.6807743879582604" dy=".35em" text-anchor="start" style="font-size: 11px; font-family: Arial, Helvetica; pointer-events: none;">65000000</text></g><g class="node" transform="translate(230,231.22674374410252)"><rect height="12.270572591890781" width="10"><title>79300000
422,780,140</title></rect><text x="16" y="6.135286295945391" dy=".35em" text-anchor="start" style="font-size: 11px; font-family: Arial, Helvetica; pointer-events: none;">79300000</text></g><g class="node" transform="translate(230,162.13791215175334)"><rect height="14.174267159885513" width="10"><title>80000000
488,371,558</title></rect><text x="16" y="7.087133579942757" dy=".35em" text-anchor="start" style="font-size: 11px; font-family: Arial, Helvetica; pointer-events: none;">80000000</text></g><g class="node" transform="translate(230,274.982168679617)"><rect height="11.044306049786224" width="10"><title>94000000
380,529,370</title></rect><text x="16" y="5.522153024893112" dy=".35em" text-anchor="start" style="font-size: 11px; font-family: Arial, Helvetica; pointer-events: none;">94000000</text></g><g class="node" transform="translate(690,307.47008031065906)"><rect height="8.609065301571267" width="10" style="fill: rgb(102, 102, 102);"><title> 4.5
296,623,634</title></rect><text x="-6" y="4.304532650785633" dy=".35em" text-anchor="end" style="font-size: 11px; font-family: Arial, Helvetica; pointer-events: none;"> 4.5</text></g><g class="node" transform="translate(690,462.66764389689575)"><rect height="2.3323561031041047" width="10" style="fill: rgb(102, 102, 102);"><title> 5.0
80,360,866</title></rect><text x="-6" y="1.1661780515520523" dy=".35em" text-anchor="end" style="font-size: 11px; font-family: Arial, Helvetica; pointer-events: none;"> 5.0</text></g><g class="node" transform="translate(690,449.30609512097925)"><rect height="3.361548775916521" width="10" style="fill: rgb(102, 102, 102);"><title> 6.3
115,821,495</title></rect><text x="-6" y="1.6807743879582604" dy=".35em" text-anchor="end" style="font-size: 11px; font-family: Arial, Helvetica; pointer-events: none;"> 6.3</text></g><g class="node" transform="translate(690,135.01710270204586)"><rect height="20.572605415748086" width="10" style="fill: rgb(102, 102, 102);"><title> 6.5
708,825,031</title></rect><text x="-6" y="10.286302707874043" dy=".35em" text-anchor="end" style="font-size: 11px; font-family: Arial, Helvetica; pointer-events: none;"> 6.5</text></g><g class="node" transform="translate(690,432.52411341002164)"><rect height="6.781981710957632" width="10" style="fill: rgb(102, 102, 102);"><title> 6.6
233,671,832</title></rect><text x="-6" y="3.390990855478816" dy=".35em" text-anchor="end" style="font-size: 11px; font-family: Arial, Helvetica; pointer-events: none;"> 6.6</text></g><g class="node" transform="translate(690,326.0791456122303)"><rect height="8.544018430945377" width="10" style="fill: rgb(102, 102, 102);"><title> 6.7
294,382,457</title></rect><text x="-6" y="4.272009215472688" dy=".35em" text-anchor="end" style="font-size: 11px; font-family: Arial, Helvetica; pointer-events: none;"> 6.7</text></g><g class="node" transform="translate(690,415.7220871776985)"><rect height="6.802026232323128" width="10" style="fill: rgb(102, 102, 102);"><title> 6.8
234,362,462</title></rect><text x="-6" y="3.401013116161564" dy=".35em" text-anchor="end" style="font-size: 11px; font-family: Arial, Helvetica; pointer-events: none;"> 6.8</text></g><g class="node" transform="translate(690,363.1271795442072)"><rect height="8.466482067294908" width="10" style="fill: rgb(102, 102, 102);"><title> 6.9
291,710,957</title></rect><text x="-6" y="4.233241033647454" dy=".35em" text-anchor="end" style="font-size: 11px; font-family: Arial, Helvetica; pointer-events: none;"> 6.9</text></g><g class="node" transform="translate(690,264.5838632040915)"><rect height="11.841911056781408" width="10" style="fill: rgb(102, 102, 102);"><title> 7.2
408,010,692</title></rect><text x="-6" y="5.920955528390704" dy=".35em" text-anchor="end" style="font-size: 11px; font-family: Arial, Helvetica; pointer-events: none;"> 7.2</text></g><g class="node" transform="translate(690,165.58970811779395)"><rect height="18.615572098644577" width="10" style="fill: rgb(102, 102, 102);"><title> 7.3
641,395,837</title></rect><text x="-6" y="9.307786049322289" dy=".35em" text-anchor="end" style="font-size: 11px; font-family: Arial, Helvetica; pointer-events: none;"> 7.3</text></g><g class="node" transform="translate(690,86.95755895066796)"><rect height="38.05954375137789" width="10" style="fill: rgb(102, 102, 102);"><title> 7.6
1,311,334,016</title></rect><text x="-6" y="19.029771875688944" dy=".35em" text-anchor="end" style="font-size: 11px; font-family: Arial, Helvetica; pointer-events: none;"> 7.6</text></g><g class="node" transform="translate(690,398.79614027702553)"><rect height="6.925946900672965" width="10" style="fill: rgb(102, 102, 102);"><title> 7.8
238,632,124</title></rect><text x="-6" y="3.4629734503364826" dy=".35em" text-anchor="end" style="font-size: 11px; font-family: Arial, Helvetica; pointer-events: none;"> 7.8</text></g><g class="node" transform="translate(690,219.68484586464277)"><rect height="12.628444747557948" width="10" style="fill: rgb(102, 102, 102);"><title> 7.9
435,110,554</title></rect><text x="-6" y="6.314222373778974" dy=".35em" text-anchor="end" style="font-size: 11px; font-family: Arial, Helvetica; pointer-events: none;"> 7.9</text></g><g class="node" transform="translate(690,34.99999999999997)"><rect height="41.957558950667995" width="10" style="fill: rgb(102, 102, 102);"><title> 8.0
1,445,639,355</title></rect><text x="-6" y="20.978779475333997" dy=".35em" text-anchor="end" style="font-size: 11px; font-family: Arial, Helvetica; pointer-events: none;"> 8.0</text></g><g class="node" transform="translate(690,286.42577426087286)"><rect height="11.044306049786224" width="10" style="fill: rgb(102, 102, 102);"><title> 8.1
380,529,370</title></rect><text x="-6" y="5.522153024893112" dy=".35em" text-anchor="end" style="font-size: 11px; font-family: Arial, Helvetica; pointer-events: none;"> 8.1</text></g><g class="node" transform="translate(690,344.6231640431757)"><rect height="8.50401550103151" width="10" style="fill: rgb(102, 102, 102);"><title> 8.3
293,004,164</title></rect><text x="-6" y="4.252007750515755" dy=".35em" text-anchor="end" style="font-size: 11px; font-family: Arial, Helvetica; pointer-events: none;"> 8.3</text></g><g class="node" transform="translate(690,242.31329061220072)"><rect height="12.270572591890781" width="10" style="fill: rgb(102, 102, 102);"><title> 8.4
422,780,140</title></rect><text x="-6" y="6.135286295945391" dy=".35em" text-anchor="end" style="font-size: 11px; font-family: Arial, Helvetica; pointer-events: none;"> 8.4</text></g><g class="node" transform="translate(690,381.5936616115021)"><rect height="7.202478665523436" width="10" style="fill: rgb(102, 102, 102);"><title> 8.7
248,159,971</title></rect><text x="-6" y="3.601239332761718" dy=".35em" text-anchor="end" style="font-size: 11px; font-family: Arial, Helvetica; pointer-events: none;"> 8.7</text></g><g class="node" transform="translate(690,194.20528021643852)"><rect height="15.479565648204234" width="10" style="fill: rgb(102, 102, 102);"><title> 9.0
533,345,358</title></rect><text x="-6" y="7.739782824102117" dy=".35em" text-anchor="end" style="font-size: 11px; font-family: Arial, Helvetica; pointer-events: none;"> 9.0</text></g></g></g></svg>