<svg width="700" height="500" xmlns="http://www.w3.org/2000/svg" version="1.1"><g><g class="x axis" transform="translate(0,480)" style="stroke-width: 1px; font-size: 10px; font-family: Arial, Helvetica;"><g class="tick" transform="translate(0,0)" style="opacity: 1;"><line y2="-480" x2="0" style="shape-rendering: crispedges; fill: none; stroke: rgb(204, 204, 204);"></line><text y="3" x="0" dy=".71em" style="text-anchor: middle;">1,980</text></g><g class="tick" transform="translate(116.66666666666666,0)" style="opacity: 1;"><line y2="-480" x2="0" style="shape-rendering: crispedges; fill: none; stroke: rgb(204, 204, 204);"></line><text y="3" x="0" dy=".71em" style="text-anchor: middle;">1,985</text></g><g class="tick" transform="translate(233.33333333333331,0)" style="opacity: 1;"><line y2="-480" x2="0" style="shape-rendering: crispedges; fill: none; stroke: rgb(204, 204, 204);"></line><text y="3" x="0" dy=".71em" style="text-anchor: middle;">1,990</text></g><g class="tick" transform="translate(350,0)" style="opacity: 1;"><line y2="-480" x2="0" style="shape-rendering: crispedges; fill: none; stroke: rgb(204, 204, 204);"></line><text y="3" x="0" dy=".71em" style="text-anchor: middle;">1,995</text></g><g class="tick" transform="translate(466.66666666666663,0)" style="opacity: 1;"><line y2="-480" x2="0" style="shape-rendering: crispedges; fill: none; stroke: rgb(204, 204, 204);"></line><text y="3" x="0" dy=".71em" style="text-anchor: middle;">2,000</text></g><g class="tick" transform="translate(583.3333333333334,0)" style="opacity: 1;"><line y2="-480" x2="0" style="shape-rendering: crispedges; fill: none; stroke: rgb(204, 204, 204);"></line><text y="3" x="0" dy=".71em" style="text-anchor: middle;">2,005</text></g><g class="tick" transform="translate(700,0)" style="opacity: 1;"><line y2="-480" x2="0" style="shape-rendering: crispedges; fill: none; stroke: rgb(204, 204, 204);"></line><text y="3" x="0" dy=".71em" style="text-anchor: middle;">2,010</text></g><path class="domain" d="M0,-480V0H700V-480" style="shape-rendering: crispedges; fill: none; stroke: rgb(204, 204, 204);"></path></g><path class="layer" d="M0,480L23.333333333333332,480L46.666666666666664,480L70,480L93.33333333333333,480L116.66666666666666,480L140,480L163.33333333333334,480L186.66666666666666,480L210,480L233.33333333333331,480L256.66666666666663,480L280,480L303.33333333333337,480L326.6666666666667,480L350,480L373.3333333333333,480L396.66666666666663,480L420,480L443.3333333333333,480L466.66666666666663,480L489.99999999999994,480L513.3333333333333,479.52L536.6666666666666,479.52L560,479.52L583.3333333333334,479.52L606.6666666666667,480L630,480L653.3333333333334,480L676.6666666666666,480L700,480L700,480L676.6666666666666,480L653.3333333333334,480L630,480L606.6666666666667,480L583.3333333333334,480L560,480L536.6666666666666,480L513.3333333333333,480L489.99999999999994,480L466.66666666666663,480L443.3333333333333,480L420,480L396.66666666666663,480L373.3333333333333,480L350,480L326.6666666666667,480L303.33333333333337,480L280,480L256.66666666666663,480L233.33333333333331,480L210,480L186.66666666666666,480L163.33333333333334,480L140,480L116.66666666666666,480L93.33333333333333,480L70,480L46.666666666666664,480L23.333333333333332,480L0,480Z" title="DVD Audio" style="fill: rgb(191, 105, 105);"></path><path class="layer" d="M0,411.36L23.333333333333332,442.08L46.666666666666664,475.2L70,480L93.33333333333333,480L116.66666666666666,480L140,480L163.33333333333334,480L186.66666666666666,480L210,480L233.33333333333331,480L256.66666666666663,480L280,480L303.33333333333337,480L326.6666666666667,480L350,480L373.3333333333333,480L396.66666666666663,480L420,480L443.3333333333333,480L466.66666666666663,480L489.99999999999994,480L513.3333333333333,479.52L536.6666666666666,479.52L560,479.52L583.3333333333334,479.52L606.6666666666667,480L630,480L653.3333333333334,480L676.6666666666666,480L700,480L700,480L676.6666666666666,480L653.3333333333334,480L630,480L606.6666666666667,480L583.3333333333334,479.52L560,479.52L536.6666666666666,479.52L513.3333333333333,479.52L489.99999999999994,480L466.66666666666663,480L443.3333333333333,480L420,480L396.66666666666663,480L373.3333333333333,480L350,480L326.6666666666667,480L303.33333333333337,480L280,480L256.66666666666663,480L233.33333333333331,480L210,480L186.66666666666666,480L163.33333333333334,480L140,480L116.66666666666666,480L93.33333333333333,480L70,480L46.666666666666664,480L23.333333333333332,480L0,480Z" title="8-track" style="fill: rgb(191, 137, 105);"></path><path class="layer" d="M0,411.36L23.333333333333332,442.08L46.666666666666664,475.2L70,480L93.33333333333333,480L116.66666666666666,480L140,480L163.33333333333334,480L186.66666666666666,480L210,480L233.33333333333331,480L256.66666666666663,480L280,480L303.33333333333337,480L326.6666666666667,480L350,480L373.3333333333333,480L396.66666666666663,480L420,480L443.3333333333333,480L466.66666666666663,480L489.99999999999994,480L513.3333333333333,479.52L536.6666666666666,479.52L560,479.52L583.3333333333334,473.76L606.6666666666667,471.36L630,469.44L653.3333333333334,468L676.6666666666666,466.56L700,466.08L700,480L676.6666666666666,480L653.3333333333334,480L630,480L606.6666666666667,480L583.3333333333334,479.52L560,479.52L536.6666666666666,479.52L513.3333333333333,479.52L489.99999999999994,480L466.66666666666663,480L443.3333333333333,480L420,480L396.66666666666663,480L373.3333333333333,480L350,480L326.6666666666667,480L303.33333333333337,480L280,480L256.66666666666663,480L233.33333333333331,480L210,480L186.66666666666666,480L163.33333333333334,480L140,480L116.66666666666666,480L93.33333333333333,480L70,480L46.666666666666664,475.2L23.333333333333332,442.08L0,411.36Z" title="Subscription" style="fill: rgb(191, 169, 105);"></path><path class="layer" d="M0,411.36L23.333333333333332,442.08L46.666666666666664,475.2L70,480L93.33333333333333,480L116.66666666666666,480L140,480L163.33333333333334,480L186.66666666666666,480L210,480L233.33333333333331,480L256.66666666666663,480L280,480L303.33333333333337,480L326.6666666666667,480L350,480L373.3333333333333,480L396.66666666666663,480L420,480L443.3333333333333,480L466.66666666666663,480L489.99999999999994,480L513.3333333333333,479.52L536.6666666666666,478.56L560,479.04L583.3333333333334,473.28L606.6666666666667,471.36L630,469.44L653.3333333333334,468L676.6666666666666,466.56L700,466.08L700,466.08L676.6666666666666,466.56L653.3333333333334,468L630,469.44L606.6666666666667,471.36L583.3333333333334,473.76L560,479.52L536.6666666666666,479.52L513.3333333333333,479.52L489.99999999999994,480L466.66666666666663,480L443.3333333333333,480L420,480L396.66666666666663,480L373.3333333333333,480L350,480L326.6666666666667,480L303.33333333333337,480L280,480L256.66666666666663,480L233.33333333333331,480L210,480L186.66666666666666,480L163.33333333333334,480L140,480L116.66666666666666,480L93.33333333333333,480L70,480L46.666666666666664,475.2L23.333333333333332,442.08L0,411.36Z" title="SACD" style="fill: rgb(180, 191, 105);"></path><path class="layer" d="M0,411.36L23.333333333333332,442.08L46.666666666666664,475.2L70,480L93.33333333333333,480L116.66666666666666,480L140,480L163.33333333333334,480L186.66666666666666,480L210,471.36L233.33333333333331,468.96L256.66666666666663,472.8L280,471.84L303.33333333333337,469.92L326.6666666666667,470.88L350,471.36L373.3333333333333,470.88L396.66666666666663,467.52L420,467.52L443.3333333333333,467.52L466.66666666666663,470.4095904095904L489.99999999999994,468.48L513.3333333333333,468.48L536.6666666666666,462.24L560,455.52L583.3333333333334,449.76L606.6666666666667,453.12L630,447.36L653.3333333333334,456L676.6666666666666,453.12L700,453.6L700,466.08L676.6666666666666,466.56L653.3333333333334,468L630,469.44L606.6666666666667,471.36L583.3333333333334,473.28L560,479.04L536.6666666666666,478.56L513.3333333333333,479.52L489.99999999999994,480L466.66666666666663,480L443.3333333333333,480L420,480L396.66666666666663,480L373.3333333333333,480L350,480L326.6666666666667,480L303.33333333333337,480L280,480L256.66666666666663,480L233.33333333333331,480L210,480L186.66666666666666,480L163.33333333333334,480L140,480L116.66666666666666,480L93.33333333333333,480L70,480L46.666666666666664,475.2L23.333333333333332,442.08L0,411.36Z" title="Music video" style="fill: rgb(148, 191, 105);"></path><path class="layer" d="M0,411.36L23.333333333333332,442.08L46.666666666666664,475.2L70,480L93.33333333333333,480L116.66666666666666,480L140,480L163.33333333333334,480L186.66666666666666,480L210,471.36L233.33333333333331,468.96L256.66666666666663,472.8L280,471.84L303.33333333333337,469.92L326.6666666666667,470.88L350,471.36L373.3333333333333,470.88L396.66666666666663,467.52L420,467.52L443.3333333333333,467.52L466.66666666666663,470.4095904095904L489.99999999999994,468.48L513.3333333333333,468.48L536.6666666666666,462.24L560,455.52L583.3333333333334,433.44L606.6666666666667,421.44L630,399.84000000000003L653.3333333333334,402.72L676.6666666666666,407.52L700,416.64L700,453.6L676.6666666666666,453.12L653.3333333333334,456L630,447.36L606.6666666666667,453.12L583.3333333333334,449.76L560,455.52L536.6666666666666,462.24L513.3333333333333,468.48L489.99999999999994,468.48L466.66666666666663,470.4095904095904L443.3333333333333,467.52L420,467.52L396.66666666666663,467.52L373.3333333333333,470.88L350,471.36L326.6666666666667,470.88L303.33333333333337,469.92L280,471.84L256.66666666666663,472.8L233.33333333333331,468.96L210,471.36L186.66666666666666,480L163.33333333333334,480L140,480L116.66666666666666,480L93.33333333333333,480L70,480L46.666666666666664,475.2L23.333333333333332,442.08L0,411.36Z" title="Mobile" style="fill: rgb(116, 191, 105);"></path><path class="layer" d="M0,124.32L23.333333333333332,159.36000000000007L46.666666666666664,220.3200000000001L70,265.9200000000001L93.33333333333333,308.64L116.66666666666666,338.88L140,378.24L163.33333333333334,411.36L186.66666666666666,439.2L210,455.52L233.33333333333331,463.68L256.66666666666663,470.88L280,471.36L303.33333333333337,469.44L326.6666666666667,470.4L350,470.4L373.3333333333333,469.44L396.66666666666663,466.08L420,466.56L443.3333333333333,466.56L466.66666666666663,469.45054945054943L489.99999999999994,467.52L513.3333333333333,467.52L536.6666666666666,461.28000000000003L560,454.56L583.3333333333334,432.96000000000004L606.6666666666667,420.96000000000004L630,398.88L653.3333333333334,399.84000000000003L676.6666666666666,403.68L700,410.4L700,416.64L676.6666666666666,407.52L653.3333333333334,402.72L630,399.84000000000003L606.6666666666667,421.44L583.3333333333334,433.44L560,455.52L536.6666666666666,462.24L513.3333333333333,468.48L489.99999999999994,468.48L466.66666666666663,470.4095904095904L443.3333333333333,467.52L420,467.52L396.66666666666663,467.52L373.3333333333333,470.88L350,471.36L326.6666666666667,470.88L303.33333333333337,469.92L280,471.84L256.66666666666663,472.8L233.33333333333331,468.96L210,471.36L186.66666666666666,480L163.33333333333334,480L140,480L116.66666666666666,480L93.33333333333333,480L70,480L46.666666666666664,475.2L23.333333333333332,442.08L0,411.36Z" title="LP/EP" style="fill: rgb(105, 191, 126);"></path><path class="layer" d="M0,124.32L23.333333333333332,159.36000000000007L46.666666666666664,220.3200000000001L70,265.9200000000001L93.33333333333333,308.64L116.66666666666666,338.88L140,378.24L163.33333333333334,411.36L186.66666666666666,439.2L210,455.52L233.33333333333331,463.68L256.66666666666663,470.88L280,471.36L303.33333333333337,469.44L326.6666666666667,470.4L350,470.4L373.3333333333333,469.44L396.66666666666663,466.08L420,466.56L443.3333333333333,466.56L466.66666666666663,469.45054945054943L489.99999999999994,467.52L513.3333333333333,467.52L536.6666666666666,461.28000000000003L560,454.56L583.3333333333334,432.96000000000004L606.6666666666667,420.96000000000004L630,398.88L653.3333333333334,399.84000000000003L676.6666666666666,403.20000000000005L700,409.92L700,410.4L676.6666666666666,403.68L653.3333333333334,399.84000000000003L630,398.88L606.6666666666667,420.96000000000004L583.3333333333334,432.96000000000004L560,454.56L536.6666666666666,461.28000000000003L513.3333333333333,467.52L489.99999999999994,467.52L466.66666666666663,469.45054945054943L443.3333333333333,466.56L420,466.56L396.66666666666663,466.08L373.3333333333333,469.44L350,470.4L326.6666666666667,470.4L303.33333333333337,469.44L280,471.36L256.66666666666663,470.88L233.33333333333331,463.68L210,455.52L186.66666666666666,439.2L163.33333333333334,411.36L140,378.24L116.66666666666666,338.88L93.33333333333333,308.64L70,265.9200000000001L46.666666666666664,220.3200000000001L23.333333333333332,159.36000000000007L0,124.32Z" title="Kiosk" style="fill: rgb(105, 191, 159);"></path><path class="layer" d="M0,124.32L23.333333333333332,159.36000000000007L46.666666666666664,220.3200000000001L70,265.9200000000001L93.33333333333333,308.64L116.66666666666666,338.88L140,378.24L163.33333333333334,411.36L186.66666666666666,439.2L210,455.52L233.33333333333331,463.68L256.66666666666663,470.88L280,471.36L303.33333333333337,469.44L326.6666666666667,470.4L350,470.4L373.3333333333333,469.44L396.66666666666663,466.08L420,466.56L443.3333333333333,466.56L466.66666666666663,469.45054945054943L489.99999999999994,467.52L513.3333333333333,467.52L536.6666666666666,461.28000000000003L560,449.28000000000003L583.3333333333334,418.08L606.6666666666667,396.48L630,361.44000000000005L653.3333333333334,339.84000000000003L676.6666666666666,322.08000000000004L700,309.12L700,409.92L676.6666666666666,403.20000000000005L653.3333333333334,399.84000000000003L630,398.88L606.6666666666667,420.96000000000004L583.3333333333334,432.96000000000004L560,454.56L536.6666666666666,461.28000000000003L513.3333333333333,467.52L489.99999999999994,467.52L466.66666666666663,469.45054945054943L443.3333333333333,466.56L420,466.56L396.66666666666663,466.08L373.3333333333333,469.44L350,470.4L326.6666666666667,470.4L303.33333333333337,469.44L280,471.36L256.66666666666663,470.88L233.33333333333331,463.68L210,455.52L186.66666666666666,439.2L163.33333333333334,411.36L140,378.24L116.66666666666666,338.88L93.33333333333333,308.64L70,265.9200000000001L46.666666666666664,220.3200000000001L23.333333333333332,159.36000000000007L0,124.32Z" title="Download Single" style="fill: rgb(105, 191, 191);"></path><path class="layer" d="M0,124.32L23.333333333333332,159.36000000000007L46.666666666666664,220.3200000000001L70,265.9200000000001L93.33333333333333,308.64L116.66666666666666,338.88L140,378.24L163.33333333333334,411.36L186.66666666666666,439.2L210,455.52L233.33333333333331,463.68L256.66666666666663,470.88L280,471.36L303.33333333333337,469.44L326.6666666666667,470.4L350,470.4L373.3333333333333,469.44L396.66666666666663,466.08L420,466.56L443.3333333333333,466.56L466.66666666666663,469.45054945054943L489.99999999999994,467.52L513.3333333333333,467.52L536.6666666666666,461.28000000000003L560,449.28000000000003L583.3333333333334,418.08L606.6666666666667,395.52000000000004L630,360L653.3333333333334,337.44L676.6666666666666,319.68000000000006L700,306.72L700,309.12L676.6666666666666,322.08000000000004L653.3333333333334,339.84000000000003L630,361.44000000000005L606.6666666666667,396.48L583.3333333333334,418.08L560,449.28000000000003L536.6666666666666,461.28000000000003L513.3333333333333,467.52L489.99999999999994,467.52L466.66666666666663,469.45054945054943L443.3333333333333,466.56L420,466.56L396.66666666666663,466.08L373.3333333333333,469.44L350,470.4L326.6666666666667,470.4L303.33333333333337,469.44L280,471.36L256.66666666666663,470.88L233.33333333333331,463.68L210,455.52L186.66666666666666,439.2L163.33333333333334,411.36L140,378.24L116.66666666666666,338.88L93.33333333333333,308.64L70,265.9200000000001L46.666666666666664,220.3200000000001L23.333333333333332,159.36000000000007L0,124.32Z" title="Download Music Video" style="fill: rgb(105, 159, 191);"></path><path class="layer" d="M0,124.32L23.333333333333332,159.36000000000007L46.666666666666664,220.3200000000001L70,265.9200000000001L93.33333333333333,308.64L116.66666666666666,338.88L140,378.24L163.33333333333334,411.36L186.66666666666666,439.2L210,455.52L233.33333333333331,463.68L256.66666666666663,470.88L280,471.36L303.33333333333337,469.44L326.6666666666667,470.4L350,470.4L373.3333333333333,469.44L396.66666666666663,466.08L420,466.56L443.3333333333333,466.56L466.66666666666663,469.45054945054943L489.99999999999994,467.52L513.3333333333333,467.52L536.6666666666666,461.28000000000003L560,447.36L583.3333333333334,412.32L606.6666666666667,383.52000000000004L630,336.48L653.3333333333334,299.52000000000004L676.6666666666666,266.8800000000001L700,235.68000000000006L700,306.72L676.6666666666666,319.68000000000006L653.3333333333334,337.44L630,360L606.6666666666667,395.52000000000004L583.3333333333334,418.08L560,449.28000000000003L536.6666666666666,461.28000000000003L513.3333333333333,467.52L489.99999999999994,467.52L466.66666666666663,469.45054945054943L443.3333333333333,466.56L420,466.56L396.66666666666663,466.08L373.3333333333333,469.44L350,470.4L326.6666666666667,470.4L303.33333333333337,469.44L280,471.36L256.66666666666663,470.88L233.33333333333331,463.68L210,455.52L186.66666666666666,439.2L163.33333333333334,411.36L140,378.24L116.66666666666666,338.88L93.33333333333333,308.64L70,265.9200000000001L46.666666666666664,220.3200000000001L23.333333333333332,159.36000000000007L0,124.32Z" title="Download Album" style="fill: rgb(105, 126, 191);"></path><path class="layer" d="M0,124.32L23.333333333333332,159.36000000000007L46.666666666666664,220.3200000000001L70,265.9200000000001L93.33333333333333,308.64L116.66666666666666,338.88L140,378.24L163.33333333333334,411.36L186.66666666666666,438.24L210,455.52L233.33333333333331,463.2L256.66666666666663,468.96L280,468.96L303.33333333333337,467.04L326.6666666666667,468L350,466.08L373.3333333333333,462.24L396.66666666666663,455.52L420,459.36L443.3333333333333,459.36L466.66666666666663,464.65534465534466L489.99999999999994,464.64L513.3333333333333,466.56L536.6666666666666,459.84000000000003L560,446.88L583.3333333333334,411.84L606.6666666666667,383.04L630,336L653.3333333333334,299.52000000000004L676.6666666666666,266.8800000000001L700,235.68000000000006L700,235.68000000000006L676.6666666666666,266.8800000000001L653.3333333333334,299.52000000000004L630,336.48L606.6666666666667,383.52000000000004L583.3333333333334,412.32L560,447.36L536.6666666666666,461.28000000000003L513.3333333333333,467.52L489.99999999999994,467.52L466.66666666666663,469.45054945054943L443.3333333333333,466.56L420,466.56L396.66666666666663,466.08L373.3333333333333,469.44L350,470.4L326.6666666666667,470.4L303.33333333333337,469.44L280,471.36L256.66666666666663,470.88L233.33333333333331,463.68L210,455.52L186.66666666666666,439.2L163.33333333333334,411.36L140,378.24L116.66666666666666,338.88L93.33333333333333,308.64L70,265.9200000000001L46.666666666666664,220.3200000000001L23.333333333333332,159.36000000000007L0,124.32Z" title="CD single" style="fill: rgb(116, 105, 191);"></path><path class="layer" d="M0,124.32L23.333333333333332,159.36000000000007L46.666666666666664,220.3200000000001L70,263.52000000000004L93.33333333333333,297.12L116.66666666666666,296.1600000000001L140,282.24L163.33333333333334,274.56000000000006L186.66666666666666,277.9200000000001L210,266.88000000000005L233.33333333333331,243.36000000000007L256.66666666666663,202.56L280,184.8L303.33333333333337,156.00000000000006L326.6666666666667,131.52000000000004L350,100.80000000000018L373.3333333333333,82.08000000000015L396.66666666666663,66.24000000000007L420,37.44000000000011L443.3333333333333,37.44000000000011L466.66666666666663,22.057942057942228L489.99999999999994,13.440000000000111L513.3333333333333,9.120000000000118L536.6666666666666,5.280000000000143L560,1.9200000000001296L583.3333333333334,0.9600000000000364L606.6666666666667,0.4800000000001319L630,1.1368683772161603e-13L653.3333333333334,1.1368683772161603e-13L676.6666666666666,1.1368683772161603e-13L700,1.1368683772161603e-13L700,235.68000000000006L676.6666666666666,266.8800000000001L653.3333333333334,299.52000000000004L630,336L606.6666666666667,383.04L583.3333333333334,411.84L560,446.88L536.6666666666666,459.84000000000003L513.3333333333333,466.56L489.99999999999994,464.64L466.66666666666663,464.65534465534466L443.3333333333333,459.36L420,459.36L396.66666666666663,455.52L373.3333333333333,462.24L350,466.08L326.6666666666667,468L303.33333333333337,467.04L280,468.96L256.66666666666663,468.96L233.33333333333331,463.2L210,455.52L186.66666666666666,438.24L163.33333333333334,411.36L140,378.24L116.66666666666666,338.88L93.33333333333333,308.64L70,265.9200000000001L46.666666666666664,220.3200000000001L23.333333333333332,159.36000000000007L0,124.32Z" title="CD" style="fill: rgb(148, 105, 191);"></path><path class="layer" d="M0,124.32L23.333333333333332,159.36000000000007L46.666666666666664,220.3200000000001L70,263.52000000000004L93.33333333333333,297.12L116.66666666666666,296.1600000000001L140,282.24L163.33333333333334,273.12000000000006L186.66666666666666,273.6L210,252.48000000000005L233.33333333333331,227.04000000000005L256.66666666666663,188.64L280,168.95999999999998L303.33333333333337,141.60000000000002L326.6666666666667,120.48000000000008L350,91.68000000000018L373.3333333333333,74.88000000000011L396.66666666666663,60.960000000000036L420,36.000000000000114L443.3333333333333,36.000000000000114L466.66666666666663,22.057942057942228L489.99999999999994,13.440000000000111L513.3333333333333,9.120000000000118L536.6666666666666,5.280000000000143L560,1.9200000000001296L583.3333333333334,0.9600000000000364L606.6666666666667,0.4800000000001319L630,1.1368683772161603e-13L653.3333333333334,1.1368683772161603e-13L676.6666666666666,1.1368683772161603e-13L700,1.1368683772161603e-13L700,1.1368683772161603e-13L676.6666666666666,1.1368683772161603e-13L653.3333333333334,1.1368683772161603e-13L630,1.1368683772161603e-13L606.6666666666667,0.4800000000001319L583.3333333333334,0.9600000000000364L560,1.9200000000001296L536.6666666666666,5.280000000000143L513.3333333333333,9.120000000000118L489.99999999999994,13.440000000000111L466.66666666666663,22.057942057942228L443.3333333333333,37.44000000000011L420,37.44000000000011L396.66666666666663,66.24000000000007L373.3333333333333,82.08000000000015L350,100.80000000000018L326.6666666666667,131.52000000000004L303.33333333333337,156.00000000000006L280,184.8L256.66666666666663,202.56L233.33333333333331,243.36000000000007L210,266.88000000000005L186.66666666666666,277.9200000000001L163.33333333333334,274.56000000000006L140,282.24L116.66666666666666,296.1600000000001L93.33333333333333,297.12L70,263.52000000000004L46.666666666666664,220.3200000000001L23.333333333333332,159.36000000000007L0,124.32Z" title="Cassete single" style="fill: rgb(180, 105, 191);"></path><path class="layer" d="M0,32.64000000000004L23.333333333333332,31.20000000000016L46.666666666666664,36.96000000000021L70,34.0800000000001L93.33333333333333,33.12000000000006L116.66666666666666,30.72000000000014L140,23.520000000000095L163.33333333333334,17.760000000000048L186.66666666666666,13.920000000000073L210,8.6400000000001L233.33333333333331,6.240000000000066L256.66666666666663,3.840000000000032L280,3.3600000000000705L303.33333333333337,2.400000000000034L326.6666666666667,1.9200000000001296L350,1.9200000000001864L373.3333333333333,1.9200000000001296L396.66666666666663,1.4400000000000546L420,0.9600000000000932L443.3333333333333,0.9600000000000932L466.66666666666663,0.9590409590411468L489.99999999999994,0.9600000000000932L513.3333333333333,0.9600000000000932L536.6666666666666,0.9600000000001501L560,0.9600000000000932L583.3333333333334,0.48000000000007503L606.6666666666667,0.4800000000001319L630,1.1368683772161603e-13L653.3333333333334,1.1368683772161603e-13L676.6666666666666,1.1368683772161603e-13L700,1.1368683772161603e-13L700,1.1368683772161603e-13L676.6666666666666,1.1368683772161603e-13L653.3333333333334,1.1368683772161603e-13L630,1.1368683772161603e-13L606.6666666666667,0.4800000000001319L583.3333333333334,0.9600000000000364L560,1.9200000000001296L536.6666666666666,5.280000000000143L513.3333333333333,9.120000000000118L489.99999999999994,13.440000000000111L466.66666666666663,22.057942057942228L443.3333333333333,36.000000000000114L420,36.000000000000114L396.66666666666663,60.960000000000036L373.3333333333333,74.88000000000011L350,91.68000000000018L326.6666666666667,120.48000000000008L303.33333333333337,141.60000000000002L280,168.95999999999998L256.66666666666663,188.64L233.33333333333331,227.04000000000005L210,252.48000000000005L186.66666666666666,273.6L163.33333333333334,273.12000000000006L140,282.24L116.66666666666666,296.1600000000001L93.33333333333333,297.12L70,263.52000000000004L46.666666666666664,220.3200000000001L23.333333333333332,159.36000000000007L0,124.32Z" title="Cassete" style="fill: rgb(191, 105, 169);"></path><path class="layer" d="M0,0L23.333333333333332,1.1368683772161603e-13L46.666666666666664,2.2737367544323206e-13L70,1.1368683772161603e-13L93.33333333333333,1.1368683772161603e-13L116.66666666666666,1.1368683772161603e-13L140,1.1368683772161603e-13L163.33333333333334,1.1368683772161603e-13L186.66666666666666,1.1368683772161603e-13L210,1.1368683772161603e-13L233.33333333333331,1.1368683772161603e-13L256.66666666666663,0L280,1.1368683772161603e-13L303.33333333333337,1.1368683772161603e-13L326.6666666666667,1.1368683772161603e-13L350,2.2737367544323206e-13L373.3333333333333,1.1368683772161603e-13L396.66666666666663,1.1368683772161603e-13L420,1.1368683772161603e-13L443.3333333333333,1.1368683772161603e-13L466.66666666666663,1.7053025658242404e-13L489.99999999999994,1.1368683772161603e-13L513.3333333333333,1.1368683772161603e-13L536.6666666666666,1.7053025658242404e-13L560,1.1368683772161603e-13L583.3333333333334,1.1368683772161603e-13L606.6666666666667,1.1368683772161603e-13L630,1.1368683772161603e-13L653.3333333333334,1.1368683772161603e-13L676.6666666666666,1.1368683772161603e-13L700,1.1368683772161603e-13L700,1.1368683772161603e-13L676.6666666666666,1.1368683772161603e-13L653.3333333333334,1.1368683772161603e-13L630,1.1368683772161603e-13L606.6666666666667,0.4800000000001319L583.3333333333334,0.48000000000007503L560,0.9600000000000932L536.6666666666666,0.9600000000001501L513.3333333333333,0.9600000000000932L489.99999999999994,0.9600000000000932L466.66666666666663,0.9590409590411468L443.3333333333333,0.9600000000000932L420,0.9600000000000932L396.66666666666663,1.4400000000000546L373.3333333333333,1.9200000000001296L350,1.9200000000001864L326.6666666666667,1.9200000000001296L303.33333333333337,2.400000000000034L280,3.3600000000000705L256.66666666666663,3.840000000000032L233.33333333333331,6.240000000000066L210,8.6400000000001L186.66666666666666,13.920000000000073L163.33333333333334,17.760000000000048L140,23.520000000000095L116.66666666666666,30.72000000000014L93.33333333333333,33.12000000000006L70,34.0800000000001L46.666666666666664,36.96000000000021L23.333333333333332,31.20000000000016L0,32.64000000000004Z" title="vinyl single" style="fill: rgb(191, 105, 137);"></path><text x="583.3333333333334" y="479.76" style="font-size: 11px; font-family: Arial, Helvetica;">DVD Audio</text><text x="0" y="445.68" style="font-size: 11px; font-family: Arial, Helvetica;">8-track</text><text x="700" y="473.04" style="font-size: 11px; font-family: Arial, Helvetica;">Subscription</text><text x="536.6666666666666" y="479.04" style="font-size: 11px; font-family: Arial, Helvetica;">SACD</text><text x="583.3333333333334" y="461.52" style="font-size: 11px; font-family: Arial, Helvetica;">Music video</text><text x="653.3333333333334" y="429.36" style="font-size: 11px; font-family: Arial, Helvetica;">Mobile</text><text x="0" y="267.84000000000003" style="font-size: 11px; font-family: Arial, Helvetica;">LP/EP</text><text x="676.6666666666666" y="403.44" style="font-size: 11px; font-family: Arial, Helvetica;">Kiosk</text><text x="700" y="359.52000000000004" style="font-size: 11px; font-family: Arial, Helvetica;">Download Single</text><text x="653.3333333333334" y="338.64" style="font-size: 11px; font-family: Arial, Helvetica;">Download Music Video</text><text x="700" y="271.20000000000005" style="font-size: 11px; font-family: Arial, Helvetica;">Download Album</text><text x="396.66666666666663" y="460.8" style="font-size: 11px; font-family: Arial, Helvetica;">CD single</text><text x="513.3333333333333" y="237.8400000000001" style="font-size: 11px; font-family: Arial, Helvetica;">CD</text><text x="233.33333333333331" y="235.20000000000005" style="font-size: 11px; font-family: Arial, Helvetica;">Cassete single</text><text x="116.66666666666666" y="163.44000000000005" style="font-size: 11px; font-family: Arial, Helvetica;">Cassete</text><text x="46.666666666666664" y="18.48000000000019" style="font-size: 11px; font-family: Arial, Helvetica;">vinyl single</text></g></svg>